<?xml version="1.0" encoding="UTF-8"?>
<!DOCTYPE svg PUBLIC "-//W3C//DTD SVG 1.1//EN" "http://www.w3.org/Graphics/SVG/1.1/DTD/svg11.dtd">
<svg xmlns="http://www.w3.org/2000/svg" version="1.1" width="481px" height="343px" style="shape-rendering:geometricPrecision; text-rendering:geometricPrecision; image-rendering:optimizeQuality; fill-rule:evenodd; clip-rule:evenodd" xmlns:xlink="http://www.w3.org/1999/xlink">
<g><path style="opacity:1" fill="#282c34" d="M -0.5,-0.5 C 159.833,-0.5 320.167,-0.5 480.5,-0.5C 480.5,113.833 480.5,228.167 480.5,342.5C 320.167,342.5 159.833,342.5 -0.5,342.5C -0.5,228.167 -0.5,113.833 -0.5,-0.5 Z"/></g>
<g><path style="opacity:1" fill="#fefffe" d="M 257.5,7.5 C 264.167,7.5 270.833,7.5 277.5,7.5C 277.667,45.1681 277.5,82.8348 277,120.5C 270.301,126.864 263.968,133.531 258,140.5C 257.5,96.1679 257.333,51.8346 257.5,7.5 Z"/></g>
<g><path style="opacity:1" fill="#fefffe" d="M 294.5,7.5 C 301.5,7.5 308.5,7.5 315.5,7.5C 315.833,37.1742 315.5,66.8408 314.5,96.5C 307.582,100.585 301.082,105.252 295,110.5C 294.5,76.1683 294.333,41.835 294.5,7.5 Z"/></g>
<g><path style="opacity:1" fill="#fdfdfd" d="M 219.5,331.5 C 212.833,331.5 206.167,331.5 199.5,331.5C 199.5,288.167 199.5,244.833 199.5,201.5C 199.421,199.334 198.754,197.334 197.5,195.5C 199.082,193.134 198.749,191.134 196.5,189.5C 197.687,187.79 197.354,186.29 195.5,185C 195.645,184.228 195.978,183.561 196.5,183C 195.167,180.667 193.833,178.333 192.5,176C 193.535,174.493 193.368,172.993 192,171.5C 190.334,172.34 190.167,171.84 191.5,170C 189.699,169.683 189.366,169.016 190.5,168C 188.699,167.683 188.366,167.016 189.5,166C 188.833,164 187.5,162.667 185.5,162C 185.833,161.667 186.167,161.333 186.5,161C 184.833,159.333 183.167,157.667 181.5,156C 181.833,155.667 182.167,155.333 182.5,155C 178.333,149.5 173.5,144.667 168,140.5C 167.667,140.833 167.333,141.167 167,141.5C 165,138.832 162.833,136.665 160.5,135C 159.24,133.887 158.073,133.72 157,134.5C 156.424,131.876 155.09,131.209 153,132.5C 152.683,130.699 152.016,130.366 151,131.5C 150.683,129.699 150.016,129.366 149,130.5C 148.683,128.699 148.016,128.366 147,129.5C 146.395,127.519 145.395,127.185 144,128.5C 143.692,127.692 143.192,127.025 142.5,126.5C 141.097,126.36 139.597,126.36 138,126.5C 137.323,124.311 136.156,123.978 134.5,125.5C 133.407,123.23 131.907,122.897 130,124.5C 128.604,123.606 127.104,122.939 125.5,122.5C 117.659,121.199 109.826,121.199 102,122.5C 100.39,124.489 98.5565,124.822 96.5,123.5C 95.4968,125.542 94.1634,125.875 92.5,124.5C 91.5723,126.335 90.4056,126.668 89,125.5C 88.6758,127.569 87.8425,127.902 86.5,126.5C 85.2299,127.562 84.0633,128.562 83,129.5C 82.2825,128.549 81.4491,128.383 80.5,129C 81.3402,130.666 80.8402,130.833 79,129.5C 78.6827,131.301 78.016,131.634 77,130.5C 76.6827,132.301 76.016,132.634 75,131.5C 71.6898,133.146 69.0232,135.48 67,138.5C 65.927,137.72 64.7604,137.887 63.5,139C 61.9297,140.397 60.5964,141.897 59.5,143.5C 55.8333,145.167 53.1667,147.833 51.5,151.5C 49.3548,154.346 46.8548,157.012 44,159.5C 42.887,160.76 42.7203,161.927 43.5,163C 41.6992,163.317 41.3659,163.984 42.5,165C 41.6721,165.915 40.6721,166.581 39.5,167C 39.8333,167.333 40.1667,167.667 40.5,168C 39.1667,169.667 37.8333,171.333 36.5,173C 37.8331,174.84 37.6665,175.34 36,174.5C 35.3828,175.449 35.5494,176.282 36.5,177C 34.4311,177.324 34.0977,178.158 35.5,179.5C 33.6155,180.197 33.2822,181.197 34.5,182.5C 33.9747,183.192 33.3081,183.692 32.5,184C 32.0876,185.871 32.0876,187.871 32.5,190C 31.9777,190.95 31.311,191.784 30.5,192.5C 29.1998,207.729 29.1998,222.896 30.5,238C 31.4719,240.421 32.4719,242.921 33.5,245.5C 32.1246,247.163 32.458,248.497 34.5,249.5C 34.1667,250.167 33.8333,250.833 33.5,251.5C 34.1667,251.833 34.8333,252.167 35.5,252.5C 34.0977,253.842 34.4311,254.676 36.5,255C 36.0426,255.414 35.7093,255.914 35.5,256.5C 36.5622,257.77 37.5622,258.937 38.5,260C 37.3659,261.016 37.6992,261.683 39.5,262C 38.3659,263.016 38.6992,263.683 40.5,264C 39.3659,265.016 39.6992,265.683 41.5,266C 40.3659,267.016 40.6992,267.683 42.5,268C 42.1667,268.333 41.8333,268.667 41.5,269C 43.1667,270.667 44.8333,272.333 46.5,274C 45.6548,275.558 46.3215,276.558 48.5,277C 48.1667,277.333 47.8333,277.667 47.5,278C 52.6667,282.5 57.5,287.333 62,292.5C 62.3333,292.167 62.6667,291.833 63,291.5C 66,294.167 69,296.833 72,299.5C 73.016,298.366 73.6827,298.699 74,300.5C 75.016,299.366 75.6827,299.699 76,301.5C 77.016,300.366 77.6827,300.699 78,302.5C 79.016,301.366 79.6827,301.699 80,303.5C 80.3333,303.167 80.6667,302.833 81,302.5C 82.0633,303.438 83.2299,304.438 84.5,305.5C 85.8425,304.098 86.6758,304.431 87,306.5C 87.414,306.043 87.914,305.709 88.5,305.5C 90.2751,306.629 91.9418,307.629 93.5,308.5C 95.1634,307.125 96.4968,307.458 97.5,309.5C 99.8796,308.233 102.046,308.566 104,310.5C 110.483,309.718 116.816,309.718 123,310.5C 124.93,310.092 126.764,309.425 128.5,308.5C 129.442,308.608 130.275,308.941 131,309.5C 132.079,307.606 133.413,307.273 135,308.5C 135.677,306.311 136.844,305.978 138.5,307.5C 139.197,305.615 140.197,305.282 141.5,306.5C 142.192,305.975 142.692,305.308 143,304.5C 144,305.833 145,305.833 146,304.5C 146.425,311.87 146.591,319.037 146.5,326C 145.551,326.617 144.718,326.451 144,325.5C 143.676,327.569 142.842,327.902 141.5,326.5C 139.942,327.371 138.275,328.371 136.5,329.5C 135.199,328.522 134.032,328.855 133,330.5C 130.983,329.294 129.149,329.627 127.5,331.5C 126.167,331.167 124.833,330.833 123.5,330.5C 116.338,333.145 109.171,333.145 102,330.5C 99.9447,331.85 98.4447,331.517 97.5,329.5C 95.1167,330.905 92.95,330.571 91,328.5C 90.228,328.645 89.5613,328.978 89,329.5C 88.0475,327.408 86.7141,327.075 85,328.5C 84.3946,326.519 83.3946,326.185 82,327.5C 81.6758,325.431 80.8425,325.098 79.5,326.5C 79.1667,325.833 78.8333,325.167 78.5,324.5C 77.1973,325.718 76.1973,325.385 75.5,323.5C 74.1575,324.902 73.3242,324.569 73,322.5C 71.984,323.634 71.3173,323.301 71,321.5C 69.984,322.634 69.3173,322.301 69,320.5C 68,320.5 67,320.5 66,320.5C 65.6827,318.699 65.016,318.366 64,319.5C 61.7007,316.819 59.3674,314.819 57,313.5C 56,313.5 55,313.5 54,313.5C 53,312.167 52,310.833 51,309.5C 50.6667,309.833 50.3333,310.167 50,310.5C 48.669,308.004 46.8356,306.004 44.5,304.5C 41.8333,301.167 38.8333,298.167 35.5,295.5C 33.0101,292.987 30.6768,290.487 28.5,288C 29.3452,286.442 28.6785,285.442 26.5,285C 27.3452,283.442 26.6785,282.442 24.5,282C 25.3452,280.442 24.6785,279.442 22.5,279C 22.8333,278.667 23.1667,278.333 23.5,278C 21.8726,275.246 20.3726,272.412 19,269.5C 17.3335,270.34 17.1669,269.84 18.5,268C 17.8333,267.667 17.1667,267.333 16.5,267C 16.2545,265.94 16.2545,264.773 16.5,263.5C 15.5,262.167 14.5,260.833 13.5,259.5C 13.8333,258.833 14.1667,258.167 14.5,257.5C 14.1543,256.304 13.6543,256.304 13,257.5C 12.3162,256.216 12.4829,255.049 13.5,254C 11.1925,253.646 10.8592,252.646 12.5,251C 10.5113,249.39 10.1779,247.557 11.5,245.5C 10.689,244.784 10.0223,243.95 9.5,243C 9.38411,225.144 9.38411,207.144 9.5,189C 11.5268,187.604 11.8602,185.938 10.5,184C 12.5922,183.047 12.9255,181.714 11.5,180C 13.5922,179.047 13.9255,177.714 12.5,176C 14.5689,175.676 14.9023,174.842 13.5,173.5C 14.1667,173.167 14.8333,172.833 15.5,172.5C 15.6398,171.097 15.6398,169.597 15.5,168C 16.3381,166.845 17.3381,165.678 18.5,164.5C 19.7729,162.287 20.7729,159.954 21.5,157.5C 22.9538,156.48 23.2871,155.313 22.5,154C 25.1562,152.997 26.1562,151.33 25.5,149C 35.7048,137.137 47.2048,125.971 60,115.5C 60.3333,115.833 60.6667,116.167 61,116.5C 84.1376,102.275 109.638,98.1082 137.5,104C 146.535,106.341 155.035,109.841 163,114.5C 163.333,113.833 163.667,113.167 164,112.5C 164.508,114.904 165.675,115.571 167.5,114.5C 168.696,114.846 168.696,115.346 167.5,116C 168.76,117.113 169.927,117.28 171,116.5C 172.672,119.514 174.672,121.514 177,122.5C 179.65,124.1 182.316,126.433 185,129.5C 185.333,129.167 185.667,128.833 186,128.5C 187.5,130 189,131.5 190.5,133C 190.167,133.333 189.833,133.667 189.5,134C 193.887,138.387 197.887,142.387 201.5,146C 201.167,146.333 200.833,146.667 200.5,147C 201.579,147.956 202.745,148.789 204,149.5C 204.154,152.161 205.154,154.827 207,157.5C 207.75,158.126 208.584,158.626 209.5,159C 208.366,160.016 208.699,160.683 210.5,161C 210.167,161.333 209.833,161.667 209.5,162C 210.5,163 211.5,164 212.5,165C 212.165,166.503 212.165,167.836 212.5,169C 214.569,169.324 214.902,170.158 213.5,171.5C 215.385,172.197 215.718,173.197 214.5,174.5C 215.025,175.192 215.692,175.692 216.5,176C 215.075,177.714 215.408,179.047 217.5,180C 217.967,182.015 217.967,184.182 217.5,186.5C 218.311,187.216 218.978,188.05 219.5,189C 219.482,236.394 219.482,283.894 219.5,331.5 Z"/></g>
<g><path style="opacity:1" fill="#fbfbfb" d="M 435.5,129.5 C 437.5,132.167 439.833,134.5 442.5,136.5C 445.986,139.132 448.653,141.966 450.5,145C 450.167,145.333 449.833,145.667 449.5,146C 451.679,146.442 452.345,147.442 451.5,149C 453.5,151.333 455.5,153.667 457.5,156C 456.366,157.016 456.699,157.683 458.5,158C 457.366,159.016 457.699,159.683 459.5,160C 458.366,161.016 458.699,161.683 460.5,162C 459.366,163.016 459.699,163.683 461.5,164C 460.167,165.84 460.334,166.34 462,165.5C 462.617,166.449 462.451,167.282 461.5,168C 463.569,168.324 463.902,169.158 462.5,170.5C 464.385,171.197 464.718,172.197 463.5,173.5C 465.385,174.197 465.718,175.197 464.5,176.5C 465.025,177.192 465.692,177.692 466.5,178C 466.967,180.015 466.967,182.182 466.5,184.5C 467.025,185.192 467.692,185.692 468.5,186C 467.009,188.022 467.342,189.688 469.5,191C 468.884,192.4 468.551,193.9 468.5,195.5C 470.51,208.425 471.01,221.425 470,234.5C 468.496,236.099 468.33,237.932 469.5,240C 468.946,241.551 468.28,243.051 467.5,244.5C 467.608,245.442 467.941,246.275 468.5,247C 466.21,247.79 465.877,249.124 467.5,251C 466.554,252.765 465.554,254.598 464.5,256.5C 464.833,257.167 465.167,257.833 465.5,258.5C 464.833,258.833 464.167,259.167 463.5,259.5C 464.718,260.803 464.385,261.803 462.5,262.5C 462.709,263.086 463.043,263.586 463.5,264C 462.562,265.063 461.562,266.23 460.5,267.5C 461.902,268.842 461.569,269.676 459.5,270C 460.634,271.016 460.301,271.683 458.5,272C 458.5,273 458.5,274 458.5,275C 456.5,275.667 455.167,277 454.5,279C 454.5,280 454.5,281 454.5,282C 453.672,282.915 452.672,283.581 451.5,284C 451.833,284.333 452.167,284.667 452.5,285C 450.167,287.333 447.833,289.667 445.5,292C 445.833,292.333 446.167,292.667 446.5,293C 444.353,295.237 442.02,297.237 439.5,299C 439.833,299.333 440.167,299.667 440.5,300C 438.667,301.833 436.833,303.667 435,305.5C 434.667,305.167 434.333,304.833 434,304.5C 432.426,305.984 431.093,307.651 430,309.5C 429.667,309.167 429.333,308.833 429,308.5C 428,309.833 427,311.167 426,312.5C 425.667,312.167 425.333,311.833 425,311.5C 424,312.833 423,314.167 422,315.5C 421,315.5 420,315.5 419,315.5C 415.417,317.181 412.751,319.181 411,321.5C 410,321.5 409,321.5 408,321.5C 407.676,323.569 406.842,323.902 405.5,322.5C 404.23,323.562 403.063,324.562 402,325.5C 400.16,324.167 399.66,324.334 400.5,326C 399.451,326.492 398.451,326.326 397.5,325.5C 396.304,325.846 396.304,326.346 397.5,327C 396.551,327.617 395.718,327.451 395,326.5C 394.047,328.592 392.714,328.925 391,327.5C 390.323,329.689 389.156,330.022 387.5,328.5C 385.792,330.691 383.792,331.024 381.5,329.5C 379.659,331.833 377.492,332.166 375,330.5C 368.335,332.542 361.501,333.042 354.5,332C 352.516,330.19 350.349,330.024 348,331.5C 346.618,329.419 344.951,329.085 343,330.5C 341.494,328.672 339.827,328.338 338,329.5C 337.692,328.692 337.192,328.025 336.5,327.5C 334.597,327.694 332.763,327.694 331,327.5C 330.395,325.519 329.395,325.185 328,326.5C 327.667,325.833 327.333,325.167 327,324.5C 325.836,324.165 324.503,324.165 323,324.5C 322.683,322.699 322.016,322.366 321,323.5C 319.845,322.662 318.678,321.662 317.5,320.5C 315.614,319.639 313.78,318.639 312,317.5C 311.601,317.728 311.435,318.062 311.5,318.5C 309.665,318.061 308.165,316.728 307,314.5C 306,314.5 305,314.5 304,314.5C 295.833,306.333 287.667,298.167 279.5,290C 279.833,289.667 280.167,289.333 280.5,289C 279.181,286.633 277.181,284.299 274.5,282C 275.634,280.984 275.301,280.317 273.5,280C 274.634,278.984 274.301,278.317 272.5,278C 272.254,276.94 272.254,275.773 272.5,274.5C 270.615,273.803 270.282,272.803 271.5,271.5C 270.833,271.167 270.167,270.833 269.5,270.5C 270.902,269.158 270.569,268.324 268.5,268C 270.455,267.047 272.122,265.713 273.5,264C 273.167,263.667 272.833,263.333 272.5,263C 274.792,261.71 276.792,260.043 278.5,258C 278.167,257.667 277.833,257.333 277.5,257C 281.024,255.003 283.358,252.503 284.5,249.5C 285.711,250.274 285.711,251.107 284.5,252C 286.689,252.677 287.022,253.844 285.5,255.5C 287.092,257.478 288.425,259.644 289.5,262C 289.167,262.333 288.833,262.667 288.5,263C 289.833,264.667 291.167,266.333 292.5,268C 292.167,268.333 291.833,268.667 291.5,269C 292.5,271.333 294.167,273 296.5,274C 296.5,275 296.5,276 296.5,277C 298.063,278.736 299.73,280.236 301.5,281.5C 301.062,281.435 300.728,281.601 300.5,282C 303.764,285.773 307.43,288.94 311.5,291.5C 313.398,293.269 315.232,294.936 317,296.5C 317.333,296.167 317.667,295.833 318,295.5C 318.442,297.679 319.442,298.345 321,297.5C 321.442,299.679 322.442,300.345 324,299.5C 324.317,301.301 324.984,301.634 326,300.5C 326.333,301.167 326.667,301.833 327,302.5C 328,302.5 329,302.5 330,302.5C 330.333,303.167 330.667,303.833 331,304.5C 332.503,304.165 333.836,304.165 335,304.5C 335.324,306.569 336.158,306.902 337.5,305.5C 338.428,307.335 339.594,307.668 341,306.5C 341.388,307.428 342.055,308.095 343,308.5C 345.193,308.888 347.526,308.888 350,308.5C 351.261,308.759 352.261,309.426 353,310.5C 360.196,310.225 367.362,310.225 374.5,310.5C 375.192,309.975 375.692,309.308 376,308.5C 378.883,309.131 381.549,309.131 384,308.5C 384.945,308.095 385.612,307.428 386,306.5C 387.714,307.925 389.047,307.592 390,305.5C 390.718,306.451 391.551,306.617 392.5,306C 391.66,304.334 392.16,304.167 394,305.5C 394.333,304.833 394.667,304.167 395,303.5C 396.503,303.835 397.836,303.835 399,303.5C 399.317,301.699 399.984,301.366 401,302.5C 401.317,300.699 401.984,300.366 403,301.5C 403.317,299.699 403.984,299.366 405,300.5C 405.317,298.699 405.984,298.366 407,299.5C 409,298.833 410.333,297.5 411,295.5C 411.333,295.833 411.667,296.167 412,296.5C 415.665,294.172 418.998,290.838 422,286.5C 422.914,287.654 423.747,287.487 424.5,286C 424.167,285.667 423.833,285.333 423.5,285C 427.838,281.998 431.172,278.665 433.5,275C 432.655,273.442 433.321,272.442 435.5,272C 435.167,271.667 434.833,271.333 434.5,271C 437.156,269.997 438.156,268.33 437.5,266C 439.301,265.683 439.634,265.016 438.5,264C 440.301,263.683 440.634,263.016 439.5,262C 441.301,261.683 441.634,261.016 440.5,260C 442.569,259.676 442.902,258.842 441.5,257.5C 442.167,257.167 442.833,256.833 443.5,256.5C 442.282,255.197 442.615,254.197 444.5,253.5C 444.925,251.851 444.925,250.017 444.5,248C 445.574,245.819 446.574,243.652 447.5,241.5C 447.392,240.558 447.059,239.725 446.5,239C 447.357,238.311 448.023,237.478 448.5,236.5C 447.167,223.5 447.167,210.5 448.5,197.5C 446.467,195.548 446.134,193.382 447.5,191C 445.475,189.806 445.141,188.306 446.5,186.5C 445.371,184.725 444.371,183.058 443.5,181.5C 444.902,180.158 444.569,179.324 442.5,179C 442.835,177.497 442.835,176.164 442.5,175C 441.5,174 440.5,173 439.5,172C 440.447,169.223 439.447,167.223 436.5,166C 436.5,165 436.5,164 436.5,163C 435.672,162.085 434.672,161.419 433.5,161C 433.833,160.667 434.167,160.333 434.5,160C 432.936,158.232 431.269,156.398 429.5,154.5C 428.581,151.911 426.914,149.911 424.5,148.5C 423.833,147.167 422.833,146.167 421.5,145.5C 420.462,143.372 419.129,142.372 417.5,142.5C 416.685,141.571 415.852,140.571 415,139.5C 414.667,139.833 414.333,140.167 414,140.5C 410.889,137.839 407.889,135.839 405,134.5C 404.085,133.672 403.419,132.672 403,131.5C 402.667,131.833 402.333,132.167 402,132.5C 401,131.5 400,130.5 399,129.5C 398.586,129.957 398.086,130.291 397.5,130.5C 397.167,129.833 396.833,129.167 396.5,128.5C 395.158,129.902 394.324,129.569 394,127.5C 393.586,127.957 393.086,128.291 392.5,128.5C 392.167,127.833 391.833,127.167 391.5,126.5C 390.199,127.478 389.032,127.145 388,125.5C 387.228,125.645 386.561,125.978 386,126.5C 385.047,124.408 383.714,124.075 382,125.5C 381.21,123.21 379.876,122.877 378,124.5C 377,123.833 376,123.167 375,122.5C 368.031,122.887 361.031,122.887 354,122.5C 352.166,124.443 350.166,124.776 348,123.5C 346.946,125.754 345.446,126.087 343.5,124.5C 342.572,126.335 341.406,126.668 340,125.5C 339.395,127.481 338.395,127.815 337,126.5C 336.667,127.167 336.333,127.833 336,128.5C 335.282,127.549 334.449,127.383 333.5,128C 334.34,129.666 333.84,129.833 332,128.5C 331.683,130.301 331.016,130.634 330,129.5C 329.683,131.301 329.016,131.634 328,130.5C 327.683,132.301 327.016,132.634 326,131.5C 325.683,133.301 325.016,133.634 324,132.5C 323.683,134.301 323.016,134.634 322,133.5C 319.667,134.5 318,136.167 317,138.5C 316.667,138.167 316.333,137.833 316,137.5C 315.558,139.679 314.558,140.345 313,139.5C 310.956,143.077 308.456,145.41 305.5,146.5C 302.911,147.419 300.911,149.086 299.5,151.5C 292.833,158.833 285.833,165.833 278.5,172.5C 275.757,174.239 273.757,176.573 272.5,179.5C 270.861,180.473 269.527,181.806 268.5,183.5C 266.413,184.585 265.08,186.251 264.5,188.5C 262.703,192.152 259.703,195.319 255.5,198C 255.833,198.333 256.167,198.667 256.5,199C 255.016,200.574 253.349,201.907 251.5,203C 251.833,203.333 252.167,203.667 252.5,204C 251.016,205.574 249.349,206.907 247.5,208C 247.833,208.333 248.167,208.667 248.5,209C 247.016,210.574 245.349,211.907 243.5,213C 243.833,213.333 244.167,213.667 244.5,214C 241,216.167 238.167,219 236,222.5C 235.333,212.5 235.333,202.5 236,192.5C 237.487,191.747 237.654,190.914 236.5,190C 238.959,189.276 239.959,187.943 239.5,186C 258.262,165.215 278.428,144.381 300,123.5C 300.333,123.833 300.667,124.167 301,124.5C 304,121.833 307,119.167 310,116.5C 311.558,117.345 312.558,116.679 313,114.5C 314.016,115.634 314.683,115.301 315,113.5C 315.333,113.833 315.667,114.167 316,114.5C 318.087,113.206 320.254,112.039 322.5,111C 321.66,109.334 322.16,109.167 324,110.5C 324.317,108.699 324.984,108.366 326,109.5C 326.324,107.431 327.158,107.098 328.5,108.5C 329.197,106.615 330.197,106.282 331.5,107.5C 332.197,105.615 333.197,105.282 334.5,106.5C 335.197,104.615 336.197,104.282 337.5,105.5C 339.629,104.586 341.796,103.586 344,102.5C 345.876,104.123 347.21,103.79 348,101.5C 349.062,102.097 350.228,102.43 351.5,102.5C 358.723,100.556 366.056,100.056 373.5,101C 375.099,102.504 376.932,102.67 379,101.5C 380.551,102.054 382.051,102.72 383.5,103.5C 384.442,103.392 385.275,103.059 386,102.5C 386.677,104.689 387.844,105.022 389.5,103.5C 390.192,104.025 390.692,104.692 391,105.5C 393.017,105.075 394.851,105.075 396.5,105.5C 397.197,107.385 398.197,107.718 399.5,106.5C 400.192,107.025 400.692,107.692 401,108.5C 402.503,108.165 403.836,108.165 405,108.5C 405.317,110.301 405.984,110.634 407,109.5C 407.317,111.301 407.984,111.634 409,110.5C 409.317,112.301 409.984,112.634 411,111.5C 411.333,112.167 411.667,112.833 412,113.5C 413.84,112.167 414.34,112.334 413.5,114C 414.76,115.113 415.927,115.28 417,114.5C 419.447,117.032 422.114,119.366 425,121.5C 425.333,121.167 425.667,120.833 426,120.5C 429.065,122.951 432.232,125.951 435.5,129.5 Z"/></g>
<g><path style="opacity:1" fill="#909090" d="M 442.5,136.5 C 439.833,134.5 437.5,132.167 435.5,129.5C 435.435,129.062 435.601,128.728 436,128.5C 438.5,131 441,133.5 443.5,136C 443.272,136.399 442.938,136.565 442.5,136.5 Z"/></g>
<g><path style="opacity:1" fill="#fcfcfc" d="M 85.5,169.5 C 81.8333,171.167 79.1667,173.833 77.5,177.5C 77.1184,179.385 75.785,180.885 73.5,182C 73.8333,182.333 74.1667,182.667 74.5,183C 71.8758,183.576 71.2092,184.91 72.5,187C 70.6992,187.317 70.3659,187.984 71.5,189C 69.4311,189.324 69.0977,190.158 70.5,191.5C 69.9747,192.192 69.3081,192.692 68.5,193C 69.9255,194.714 69.5922,196.047 67.5,197C 68.9344,199.949 68.7677,202.782 67,205.5C 65.9665,213.977 66.4665,222.311 68.5,230.5C 66.9434,233.082 67.2768,235.249 69.5,237C 68.9781,237.561 68.6448,238.228 68.5,239C 69.4913,240.677 70.4913,242.343 71.5,244C 70.3659,245.016 70.6992,245.683 72.5,246C 71.3659,247.016 71.6992,247.683 73.5,248C 72.3659,249.016 72.6992,249.683 74.5,250C 73.7203,251.073 73.887,252.24 75,253.5C 75.6667,254.833 76.3333,254.833 77,253.5C 78.113,254.76 78.2797,255.927 77.5,257C 79,258.5 80.5,260 82,261.5C 82.3333,261.167 82.6667,260.833 83,260.5C 84.093,262.349 85.4263,264.016 87,265.5C 88,265.5 89,265.5 90,265.5C 90.5079,267.904 91.6745,268.571 93.5,267.5C 94.6956,267.846 94.6956,268.346 93.5,269C 94.9931,270.368 96.4931,270.535 98,269.5C 98.3242,271.569 99.1575,271.902 100.5,270.5C 101.593,272.77 103.093,273.103 105,271.5C 105.95,272.022 106.784,272.689 107.5,273.5C 112.146,272.224 116.813,272.224 121.5,273.5C 122.647,273.182 123.481,272.516 124,271.5C 125.938,272.86 127.604,272.527 129,270.5C 130.395,271.815 131.395,271.481 132,269.5C 133.395,270.815 134.395,270.481 135,268.5C 135.414,268.957 135.914,269.291 136.5,269.5C 136.833,268.833 137.167,268.167 137.5,267.5C 138.086,267.709 138.586,268.043 139,268.5C 141.14,267.664 143.14,265.997 145,263.5C 146.627,270.665 146.96,277.999 146,285.5C 143.694,287.533 141.694,289.2 140,290.5C 138.605,289.185 137.605,289.519 137,291.5C 135.594,290.332 134.428,290.665 133.5,292.5C 132.199,291.522 131.032,291.855 130,293.5C 128.221,292.521 126.555,292.854 125,294.5C 118.175,295.788 111.342,295.788 104.5,294.5C 103.259,293.963 102.092,293.296 101,292.5C 100.228,292.645 99.5613,292.978 99,293.5C 98.0475,291.408 96.7141,291.075 95,292.5C 94.3946,290.519 93.3946,290.185 92,291.5C 91.3946,289.519 90.3946,289.185 89,290.5C 88.6827,288.699 88.016,288.366 87,289.5C 86.6667,288.833 86.3333,288.167 86,287.5C 85,287.5 84,287.5 83,287.5C 81.9971,284.844 80.3304,283.844 78,284.5C 75.0027,282.841 72.336,280.174 70,276.5C 69.6667,276.833 69.3333,277.167 69,277.5C 67.5,275.333 65.6667,273.5 63.5,272C 63.8333,271.667 64.1667,271.333 64.5,271C 63.1218,269.287 61.4552,267.953 59.5,267C 59.9589,265.057 58.9589,263.724 56.5,263C 57.3452,261.442 56.6785,260.442 54.5,260C 55.6341,258.984 55.3008,258.317 53.5,258C 54.6341,256.984 54.3008,256.317 52.5,256C 53.6341,254.984 53.3008,254.317 51.5,254C 51.2545,252.94 51.2545,251.773 51.5,250.5C 51.1543,249.304 50.6543,249.304 50,250.5C 49.3828,249.551 49.5494,248.718 50.5,248C 48.311,247.323 47.9776,246.156 49.5,244.5C 48.371,242.725 47.371,241.058 46.5,239.5C 46.9867,238.554 47.3201,237.554 47.5,236.5C 46.3639,234.682 45.6972,232.682 45.5,230.5C 46.7778,219.944 46.7778,209.444 45.5,199C 46.5784,198.326 47.2451,197.326 47.5,196C 47.3309,193.709 47.3309,191.376 47.5,189C 49.689,188.323 50.0224,187.156 48.5,185.5C 48.8457,184.304 49.3457,184.304 50,185.5C 50.6172,184.551 50.4506,183.718 49.5,183C 51.4812,182.395 51.8146,181.395 50.5,180C 52.1127,177.626 54.1127,174.96 56.5,172C 56.1667,171.667 55.8333,171.333 55.5,171C 57.6785,170.558 58.3452,169.558 57.5,168C 61.8901,163.044 66.7234,157.877 72,152.5C 72.3333,152.833 72.6667,153.167 73,153.5C 74.6667,151.833 76.3333,150.167 78,148.5C 79.5581,149.345 80.5581,148.679 81,146.5C 82.016,147.634 82.6827,147.301 83,145.5C 84.016,146.634 84.6827,146.301 85,144.5C 86.016,145.634 86.6827,145.301 87,143.5C 88,143.5 89,143.5 90,143.5C 90.3242,141.431 91.1575,141.098 92.5,142.5C 93.1973,140.615 94.1973,140.282 95.5,141.5C 96.1924,140.975 96.6924,140.308 97,139.5C 98.7141,140.925 100.047,140.592 101,138.5C 110.333,137.167 119.667,137.167 129,138.5C 129.677,140.689 130.844,141.022 132.5,139.5C 133.197,141.385 134.197,141.718 135.5,140.5C 136.192,141.025 136.692,141.692 137,142.5C 138.597,142.36 140.097,142.36 141.5,142.5C 142.696,142.846 142.696,143.346 141.5,144C 146.012,145.976 149.846,148.143 153,150.5C 153.333,150.167 153.667,149.833 154,149.5C 160.167,155.667 166.333,161.833 172.5,168C 171.366,169.016 171.699,169.683 173.5,170C 172.72,171.073 172.887,172.24 174,173.5C 174.333,173.167 174.667,172.833 175,172.5C 176.294,173.854 176.46,175.188 175.5,176.5C 175.846,177.696 176.346,177.696 177,176.5C 178.368,177.993 178.535,179.493 177.5,181C 179.569,181.324 179.902,182.158 178.5,183.5C 180.385,184.197 180.718,185.197 179.5,186.5C 181.542,187.503 181.875,188.837 180.5,190.5C 182.517,191.445 182.85,192.945 181.5,195C 181.755,196.326 182.422,197.326 183.5,198C 182.167,242.667 182.167,287.333 183.5,332C 176.167,332.667 168.833,332.667 161.5,332C 162.663,288.571 162.83,245.071 162,201.5C 160.282,199.798 160.115,197.965 161.5,196C 159.311,195.323 158.978,194.156 160.5,192.5C 158.615,191.803 158.282,190.803 159.5,189.5C 158.438,188.23 157.438,187.063 156.5,186C 155.364,180.832 151.864,175.666 146,170.5C 145.667,170.833 145.333,171.167 145,171.5C 143.426,170.016 142.093,168.349 141,166.5C 139.984,167.634 139.317,167.301 139,165.5C 137.984,166.634 137.317,166.301 137,164.5C 135.984,165.634 135.317,165.301 135,163.5C 133.984,164.634 133.317,164.301 133,162.5C 131.836,162.165 130.503,162.165 129,162.5C 128.323,160.311 127.156,159.978 125.5,161.5C 124.532,160.511 123.365,159.844 122,159.5C 116.375,160.125 110.708,160.125 105,159.5C 104.323,161.689 103.156,162.022 101.5,160.5C 100.808,161.025 100.308,161.692 100,162.5C 98.4974,162.165 97.164,162.165 96,162.5C 95.6827,164.301 95.016,164.634 94,163.5C 93.6827,165.301 93.016,165.634 92,164.5C 91.6827,166.301 91.016,166.634 90,165.5C 88.0077,166.328 86.5077,167.661 85.5,169.5 Z"/></g>
<g><path style="opacity:1" fill="#fbfbfb" d="M 323.5,279.5 C 320.833,276.167 317.833,273.167 314.5,270.5C 313.376,267.992 311.376,265.825 308.5,264C 309.156,261.67 308.156,260.003 305.5,259C 306.634,257.984 306.301,257.317 304.5,257C 305.634,255.984 305.301,255.317 303.5,255C 304.634,253.984 304.301,253.317 302.5,253C 302.5,252 302.5,251 302.5,250C 300.431,249.676 300.098,248.842 301.5,247.5C 300.833,247.167 300.167,246.833 299.5,246.5C 301.022,244.844 300.689,243.677 298.5,243C 299.833,241.16 299.666,240.66 298,241.5C 297.316,240.216 297.483,239.049 298.5,238C 297.484,237.481 296.818,236.647 296.5,235.5C 298.123,233.143 300.123,230.976 302.5,229C 302.167,228.667 301.833,228.333 301.5,228C 303.455,227.047 305.122,225.713 306.5,224C 306.167,223.667 305.833,223.333 305.5,223C 309.34,220.498 312.174,217.664 314,214.5C 314.5,215 315,215.5 315.5,216C 314.765,219.498 314.765,222.831 315.5,226C 317.807,226.354 318.141,227.354 316.5,229C 316.611,230.722 317.111,230.888 318,229.5C 318.492,230.549 318.326,231.549 317.5,232.5C 319.385,233.197 319.718,234.197 318.5,235.5C 318.846,236.696 319.346,236.696 320,235.5C 321.368,236.993 321.535,238.493 320.5,240C 321.5,241 322.5,242 323.5,243C 323.167,243.333 322.833,243.667 322.5,244C 325.156,245.003 326.156,246.67 325.5,249C 329.946,255.8 335.779,261.967 343,267.5C 343.333,267.167 343.667,266.833 344,266.5C 344.576,269.124 345.91,269.791 348,268.5C 348.333,269.167 348.667,269.833 349,270.5C 350.06,270.746 351.227,270.746 352.5,270.5C 353.197,272.385 354.197,272.718 355.5,271.5C 356.478,271.977 357.311,272.643 358,273.5C 362.136,272.191 366.302,272.191 370.5,273.5C 371.478,273.023 372.311,272.357 373,271.5C 375.355,272.131 377.522,272.131 379.5,271.5C 379.833,270.833 380.167,270.167 380.5,269.5C 381.842,270.902 382.676,270.569 383,268.5C 384.016,269.634 384.683,269.301 385,267.5C 386,267.5 387,267.5 388,267.5C 394.132,263.725 399.632,258.558 404.5,252C 404.167,251.667 403.833,251.333 403.5,251C 406.124,250.424 406.791,249.09 405.5,247C 406.5,246 407.5,245 408.5,244C 408.043,243.586 407.709,243.086 407.5,242.5C 408.167,242.167 408.833,241.833 409.5,241.5C 409.663,239.378 409.663,237.211 409.5,235C 410.308,234.692 410.975,234.192 411.5,233.5C 410.167,222.5 410.167,211.5 411.5,200.5C 409.561,198.878 409.228,197.044 410.5,195C 408.311,194.323 407.978,193.156 409.5,191.5C 407.615,190.803 407.282,189.803 408.5,188.5C 408,187.5 407.5,186.5 407,185.5C 405.334,186.34 405.167,185.84 406.5,184C 405.672,183.085 404.672,182.419 403.5,182C 403.5,181 403.5,180 403.5,179C 401.217,177.135 399.384,174.968 398,172.5C 397.667,172.833 397.333,173.167 397,173.5C 395.907,171.651 394.574,169.984 393,168.5C 392.667,168.833 392.333,169.167 392,169.5C 389.322,167.816 386.988,165.816 385,163.5C 383.836,163.165 382.503,163.165 381,163.5C 380.683,161.699 380.016,161.366 379,162.5C 377.688,160.342 376.022,160.009 374,161.5C 373.612,160.572 372.945,159.905 372,159.5C 366.667,159.5 361.333,159.5 356,159.5C 355.05,160.022 354.216,160.689 353.5,161.5C 352.197,160.282 351.197,160.615 350.5,162.5C 349.158,161.098 348.324,161.431 348,163.5C 346.497,163.165 345.164,163.165 344,163.5C 341.86,164.336 339.86,166.003 338,168.5C 337.667,168.167 337.333,167.833 337,167.5C 328.851,175.969 320.017,184.469 310.5,193C 310.833,193.333 311.167,193.667 311.5,194C 303.809,202.69 295.809,211.023 287.5,219C 287.833,219.333 288.167,219.667 288.5,220C 286.792,222.043 284.792,223.71 282.5,225C 282.833,225.333 283.167,225.667 283.5,226C 277.81,232.688 271.81,239.022 265.5,245C 265.833,245.333 266.167,245.667 266.5,246C 262.167,249 258.5,252.667 255.5,257C 255.833,257.333 256.167,257.667 256.5,258C 252.833,260.333 249.833,263.333 247.5,267C 247.833,267.333 248.167,267.667 248.5,268C 244.365,270.072 242.032,273.072 241.5,277C 238.598,278.36 236.932,280.193 236.5,282.5C 235.506,272.013 235.172,261.346 235.5,250.5C 237.233,249.992 237.566,249.159 236.5,248C 237.126,247.25 237.626,246.416 238,245.5C 238.914,246.654 239.747,246.487 240.5,245C 240.167,244.667 239.833,244.333 239.5,244C 241.959,243.276 242.959,241.943 242.5,240C 244.349,238.907 246.016,237.574 247.5,236C 247.167,235.667 246.833,235.333 246.5,235C 250.167,231.333 253.833,227.667 257.5,224C 258.76,221.683 260.76,219.349 263.5,217C 264.76,214.683 266.76,212.349 269.5,210C 269.167,209.667 268.833,209.333 268.5,209C 273.836,204.999 278.17,200.666 281.5,196C 281.167,195.667 280.833,195.333 280.5,195C 282.795,194.811 284.795,193.477 286.5,191C 286.167,190.667 285.833,190.333 285.5,190C 287.792,188.71 289.792,187.043 291.5,185C 291.167,184.667 290.833,184.333 290.5,184C 294.668,180.998 298.335,177.498 301.5,173.5C 305.833,169.833 309.833,165.833 313.5,161.5C 316.68,158.344 319.846,155.344 323,152.5C 324.558,153.345 325.558,152.679 326,150.5C 327.558,151.345 328.558,150.679 329,148.5C 330,148.5 331,148.5 332,148.5C 332.75,147.874 333.584,147.374 334.5,147C 334.167,146.667 333.833,146.333 333.5,146C 334.76,144.887 335.927,144.72 337,145.5C 337.317,143.699 337.984,143.366 339,144.5C 339.324,142.431 340.158,142.098 341.5,143.5C 342.192,142.975 342.692,142.308 343,141.5C 343.718,142.451 344.551,142.617 345.5,142C 344.66,140.334 345.16,140.167 347,141.5C 347.354,139.193 348.354,138.859 350,140.5C 351.61,138.511 353.443,138.178 355.5,139.5C 358.393,137.929 361.559,137.263 365,137.5C 368.154,137.651 371.154,138.317 374,139.5C 376.196,137.853 378.029,138.187 379.5,140.5C 381.156,138.978 382.323,139.311 383,141.5C 384.406,140.332 385.572,140.665 386.5,142.5C 387.842,141.098 388.676,141.431 389,143.5C 390.84,142.167 391.34,142.334 390.5,144C 402.256,149.418 411.923,157.418 419.5,168C 420.328,168.915 421.328,169.581 422.5,170C 422.167,170.333 421.833,170.667 421.5,171C 424.156,172.003 425.156,173.67 424.5,176C 426.569,176.324 426.902,177.158 425.5,178.5C 425.846,179.696 426.346,179.696 427,178.5C 428.368,179.993 428.535,181.493 427.5,183C 429.569,183.324 429.902,184.158 428.5,185.5C 429.025,186.192 429.692,186.692 430.5,187C 429.075,188.714 429.408,190.047 431.5,191C 430.338,192.827 430.672,194.494 432.5,196C 431.018,198.673 431.185,201.173 433,203.5C 433.667,212.167 433.667,220.833 433,229.5C 431.267,231.646 431.1,233.98 432.5,236.5C 430.854,238.055 430.521,239.721 431.5,241.5C 430.5,243.5 429.5,245.5 428.5,247.5C 429.902,248.842 429.569,249.676 427.5,250C 427.957,250.414 428.291,250.914 428.5,251.5C 427.438,252.77 426.438,253.937 425.5,255C 426.634,256.016 426.301,256.683 424.5,257C 425.634,258.016 425.301,258.683 423.5,259C 424.634,260.016 424.301,260.683 422.5,261C 423.345,262.558 422.679,263.558 420.5,264C 420.833,264.333 421.167,264.667 421.5,265C 417.11,269.956 412.277,275.123 407,280.5C 406.667,280.167 406.333,279.833 406,279.5C 405,280.833 404,282.167 403,283.5C 402.667,283.167 402.333,282.833 402,282.5C 399.86,283.336 397.86,285.003 396,287.5C 394.984,286.366 394.317,286.699 394,288.5C 393.667,288.167 393.333,287.833 393,287.5C 391.937,288.438 390.77,289.438 389.5,290.5C 388.158,289.098 387.324,289.431 387,291.5C 385.594,290.332 384.428,290.665 383.5,292.5C 381.844,290.978 380.677,291.311 380,293.5C 379.439,292.978 378.772,292.645 378,292.5C 375.414,294.685 372.58,295.018 369.5,293.5C 365.358,296.036 361.192,296.036 357,293.5C 354.804,295.147 352.971,294.813 351.5,292.5C 349.518,293.97 347.852,293.636 346.5,291.5C 345.914,291.709 345.414,292.043 345,292.5C 343.783,291.614 342.449,290.614 341,289.5C 339.984,290.634 339.317,290.301 339,288.5C 337.984,289.634 337.317,289.301 337,287.5C 335.984,288.634 335.317,288.301 335,286.5C 333.984,287.634 333.317,287.301 333,285.5C 331.927,286.28 330.76,286.113 329.5,285C 327.678,282.809 325.678,280.976 323.5,279.5 Z"/></g>
<g><path style="opacity:1" fill="#848484" d="M 421.5,145.5 C 419.871,145.628 418.538,144.628 417.5,142.5C 419.129,142.372 420.462,143.372 421.5,145.5 Z"/></g>
<g><path style="opacity:1" fill="#919191" d="M 59.5,143.5 C 57.1667,146.5 54.5,149.167 51.5,151.5C 53.1667,147.833 55.8333,145.167 59.5,143.5 Z"/></g>
<g><path style="opacity:1" fill="#7a7a7a" d="M 424.5,148.5 C 426.914,149.911 428.581,151.911 429.5,154.5C 426.758,152.819 425.091,150.819 424.5,148.5 Z"/></g>
<g><path style="opacity:1" fill="#9d9d9d" d="M 305.5,146.5 C 303.819,149.242 301.819,150.909 299.5,151.5C 300.911,149.086 302.911,147.419 305.5,146.5 Z"/></g>
<g><path style="opacity:1" fill="#888888" d="M 21.5,157.5 C 20.7729,159.954 19.7729,162.287 18.5,164.5C 17.9569,164.44 17.6236,164.107 17.5,163.5C 18.5351,160.581 19.8684,158.581 21.5,157.5 Z"/></g>
<g><path style="opacity:1" fill="#6d6d6d" d="M 313.5,161.5 C 309.833,165.833 305.833,169.833 301.5,173.5C 304.5,168.5 308.5,164.5 313.5,161.5 Z"/></g>
<g><path style="opacity:1" fill="#9b9b9b" d="M 85.5,169.5 C 83.1667,172.5 80.5,175.167 77.5,177.5C 79.1667,173.833 81.8333,171.167 85.5,169.5 Z"/></g>
<g><path style="opacity:1" fill="#898989" d="M 278.5,172.5 C 277.562,175.157 275.562,177.49 272.5,179.5C 273.757,176.573 275.757,174.239 278.5,172.5 Z"/></g>
<g><path style="opacity:1" fill="#828282" d="M 268.5,183.5 C 268.262,185.478 266.929,187.145 264.5,188.5C 265.08,186.251 266.413,184.585 268.5,183.5 Z"/></g>
<g><path style="opacity:1" fill="#7e7e7e" d="M 199.5,201.5 C 199.5,244.833 199.5,288.167 199.5,331.5C 206.167,331.5 212.833,331.5 219.5,331.5C 213.258,332.499 206.258,332.833 198.5,332.5C 198.168,288.663 198.501,244.997 199.5,201.5 Z"/></g>
<g><path style="opacity:1" fill="#585858" d="M 235.5,250.5 C 235.172,261.346 235.506,272.013 236.5,282.5C 236.217,283.289 235.717,283.956 235,284.5C 234.178,272.422 234.345,261.089 235.5,250.5 Z"/></g>
<g><path style="opacity:1" fill="#757575" d="M 314.5,270.5 C 317.833,273.167 320.833,276.167 323.5,279.5C 319.765,277.275 316.432,274.442 313.5,271C 313.728,270.601 314.062,270.435 314.5,270.5 Z"/></g>
<g><path style="opacity:1" fill="#7f7f7f" d="M 301.5,281.5 C 305.167,284.5 308.5,287.833 311.5,291.5C 307.43,288.94 303.764,285.773 300.5,282C 300.728,281.601 301.062,281.435 301.5,281.5 Z"/></g>
<g><path style="opacity:1" fill="#797979" d="M 35.5,295.5 C 38.8333,298.167 41.8333,301.167 44.5,304.5C 44.5654,304.938 44.3988,305.272 44,305.5C 40.8333,302.333 37.6667,299.167 34.5,296C 34.7284,295.601 35.0618,295.435 35.5,295.5 Z"/></g>
<g><path style="opacity:1" fill="#828282" d="M 317.5,320.5 C 315.316,321.108 313.316,320.441 311.5,318.5C 311.435,318.062 311.601,317.728 312,317.5C 313.78,318.639 315.614,319.639 317.5,320.5 Z"/></g>
</svg>
