<?xml version="1.0" encoding="UTF-8"?>
<!DOCTYPE svg PUBLIC "-//W3C//DTD SVG 1.1//EN" "http://www.w3.org/Graphics/SVG/1.1/DTD/svg11.dtd">
<svg xmlns="http://www.w3.org/2000/svg" version="1.1" width="479px" height="347px" style="shape-rendering:geometricPrecision; text-rendering:geometricPrecision; image-rendering:optimizeQuality; fill-rule:evenodd; clip-rule:evenodd" xmlns:xlink="http://www.w3.org/1999/xlink">
<g><path style="opacity:0.028" fill="#2d3138" d="M 256.5,4.5 C 264.609,3.88641 272.442,4.55308 280,6.5C 280.559,44.1727 280.225,81.8394 279,119.5C 274.7,124.801 270.034,129.801 265,134.5C 262.861,136.806 261.361,139.473 260.5,142.5C 258.364,141.528 257.197,139.861 257,137.5C 256.825,95.3044 256.325,53.1377 255.5,11C 256.287,8.90115 256.62,6.73448 256.5,4.5 Z"/></g>
<g><path style="opacity:0.041" fill="#2d3138" d="M 293.5,4.5 C 301.528,4.16897 309.528,4.5023 317.5,5.5C 318.046,6.7722 318.379,8.10553 318.5,9.5C 317.691,38.1502 317.191,66.8169 317,95.5C 309.983,100.506 302.983,105.506 296,110.5C 295.228,110.355 294.561,110.022 294,109.5C 292.363,74.4702 292.196,39.4702 293.5,4.5 Z"/></g>
<g><path style="opacity:0.44" fill="#8d8f93" d="M 277.5,77.5 C 277.5,53.8333 277.5,30.1667 277.5,6.5C 271.167,6.5 264.833,6.5 258.5,6.5C 258.5,38.5 258.5,70.5 258.5,102.5C 257.502,70.3376 257.168,38.0043 257.5,5.5C 264.5,5.5 271.5,5.5 278.5,5.5C 278.831,29.6725 278.498,53.6725 277.5,77.5 Z"/></g>
<g><path style="opacity:0.986" fill="#fdfefd" d="M 277.5,77.5 C 277.667,91.504 277.5,105.504 277,119.5C 270.634,125.531 264.634,131.864 259,138.5C 258.5,126.505 258.333,114.505 258.5,102.5C 258.5,70.5 258.5,38.5 258.5,6.5C 264.833,6.5 271.167,6.5 277.5,6.5C 277.5,30.1667 277.5,53.8333 277.5,77.5 Z"/></g>
<g><path style="opacity:0.448" fill="#929598" d="M 315.5,62.5 C 315.5,43.8333 315.5,25.1667 315.5,6.5C 308.833,6.5 302.167,6.5 295.5,6.5C 295.5,26.1667 295.5,45.8333 295.5,65.5C 294.503,45.6736 294.17,25.6736 294.5,5.5C 301.833,5.5 309.167,5.5 316.5,5.5C 316.83,24.674 316.497,43.674 315.5,62.5 Z"/></g>
<g><path style="opacity:0.985" fill="#fdfefd" d="M 315.5,62.5 C 315.832,73.5202 315.499,84.5202 314.5,95.5C 307.918,99.2497 301.751,103.583 296,108.5C 295.5,94.1705 295.333,79.8372 295.5,65.5C 295.5,45.8333 295.5,26.1667 295.5,6.5C 302.167,6.5 308.833,6.5 315.5,6.5C 315.5,25.1667 315.5,43.8333 315.5,62.5 Z"/></g>
<g><path style="opacity:0.991" fill="#fafafa" d="M 215.5,170.5 C 217.561,175.962 218.895,181.629 219.5,187.5C 219.5,234.833 219.5,282.167 219.5,329.5C 213.167,329.5 206.833,329.5 200.5,329.5C 200.832,285.33 200.499,241.33 199.5,197.5C 198.299,188.144 195.966,179.144 192.5,170.5C 188.618,163.386 184.451,156.386 180,149.5C 144.611,115.566 106.111,111.399 64.5,137C 62.6266,138.704 60.9599,140.537 59.5,142.5C 56.1667,143.833 53.8333,146.167 52.5,149.5C 49.8712,152.631 47.0379,155.631 44,158.5C 38.5174,168.785 34.1841,179.451 31,190.5C 24.9419,222.275 30.9419,251.275 49,277.5C 75.7118,307.087 108.212,315.753 146.5,303.5C 146.83,310.532 146.497,317.532 145.5,324.5C 107.962,336.106 74.6286,329.106 45.5,303.5C 42.5,299.833 39.1667,296.5 35.5,293.5C 33.8729,291.37 32.0396,289.37 30,287.5C 25.8544,280.073 21.521,272.74 17,265.5C 14.4614,257.552 12.1281,249.552 10,241.5C 9.33333,223.5 9.33333,205.5 10,187.5C 12.1219,180.133 14.4552,172.8 17,165.5C 20.622,159.253 23.9553,152.92 27,146.5C 67.1436,96.9037 115.644,86.9037 172.5,116.5C 176.647,119.754 180.647,123.254 184.5,127C 185.5,127.333 186.5,127.667 187.5,128C 191.227,133.735 195.727,138.902 201,143.5C 206.391,152.174 211.225,161.174 215.5,170.5 Z"/></g>
<g><path style="opacity:0.034" fill="#363941" d="M 216.5,170.5 C 216.167,170.5 215.833,170.5 215.5,170.5C 211.225,161.174 206.391,152.174 201,143.5C 195.727,138.902 191.227,133.735 187.5,128C 186.5,127.667 185.5,127.333 184.5,127C 180.647,123.254 176.647,119.754 172.5,116.5C 115.644,86.9037 67.1436,96.9037 27,146.5C 23.9553,152.92 20.622,159.253 17,165.5C 14.4552,172.8 12.1219,180.133 10,187.5C 9.33333,205.5 9.33333,223.5 10,241.5C 12.1281,249.552 14.4614,257.552 17,265.5C 21.521,272.74 25.8544,280.073 30,287.5C 32.0396,289.37 33.8729,291.37 35.5,293.5C 35.5,294.167 35.5,294.833 35.5,295.5C 29.6827,290.892 25.1827,285.225 22,278.5C 14.6452,265.921 9.81182,252.421 7.5,238C 7.40772,222.246 7.57438,206.413 8,190.5C 10.7874,173.839 16.7874,158.506 26,144.5C 35.4763,134.691 45.3097,125.191 55.5,116C 83.5736,98.4325 113.574,94.0991 145.5,103C 153.065,106.283 160.732,109.283 168.5,112C 174.579,116.887 180.913,121.554 187.5,126C 198.287,136.443 207.121,148.276 214,161.5C 215.145,164.432 215.978,167.432 216.5,170.5 Z"/></g>
<g><path style="opacity:0.004" fill="#3b3f40" d="M -0.5,110.5 C 0.833333,115.167 0.833333,119.833 -0.5,124.5C -0.5,119.833 -0.5,115.167 -0.5,110.5 Z"/></g>
<g><path style="opacity:0.255" fill="#828284" d="M 59.5,142.5 C 57.5,145.167 55.1667,147.5 52.5,149.5C 53.8333,146.167 56.1667,143.833 59.5,142.5 Z"/></g>
<g><path style="opacity:0.046" fill="#31353d" d="M 90.5,263.5 C 99.968,267.969 109.968,270.302 120.5,270.5C 127.475,268.23 134.475,266.064 141.5,264C 142.708,261.75 144.041,259.583 145.5,257.5C 146.192,258.025 146.692,258.692 147,259.5C 148.454,267.786 148.787,276.119 148,284.5C 145.683,287.802 142.517,289.969 138.5,291C 109.331,299.44 84.164,292.94 63,271.5C 54.9641,262.425 49.2974,252.092 46,240.5C 44.0174,222.836 44.0174,205.17 46,187.5C 55.9863,159.519 75.4863,142.019 104.5,135C 117.475,133.614 130.141,134.948 142.5,139C 147.003,142.755 152.003,145.755 157.5,148C 167.222,156.044 175.055,165.544 181,176.5C 182.673,183.19 184.339,189.857 186,196.5C 185.367,241.486 185.367,286.486 186,331.5C 177.892,333.518 169.725,333.685 161.5,332C 161,331.5 160.5,331 160,330.5C 160.64,286.866 160.64,243.2 160,199.5C 156.417,177.916 143.917,164.749 122.5,160C 101.607,157.863 85.7739,165.697 75,183.5C 70.1384,196.059 68.4717,209.059 70,222.5C 69.973,239.78 76.8064,253.446 90.5,263.5 Z"/></g>
<g><path style="opacity:0.991" fill="#f8f8f8" d="M 85.5,168.5 C 82.1667,169.833 79.8333,172.167 78.5,175.5C 77.1915,178.118 75.3582,180.451 73,182.5C 69.0087,192.253 67.1754,202.42 67.5,213C 66.7836,226.559 69.2836,239.392 75,251.5C 76.0113,252.337 77.1779,252.67 78.5,252.5C 78.0807,255.325 79.0807,257.491 81.5,259C 83.7501,259.611 85.4168,260.944 86.5,263C 87.7932,263.49 89.1266,263.657 90.5,263.5C 90.4142,264.496 90.7476,265.329 91.5,266C 103.327,271.58 115.66,272.914 128.5,270C 132.773,268.465 137.106,267.131 141.5,266C 142.667,264.833 143.833,263.667 145,262.5C 145.333,262.833 145.667,263.167 146,263.5C 146.667,270.5 146.667,277.5 146,284.5C 144.786,286.049 143.286,287.215 141.5,288C 112.495,298.204 86.9949,292.704 65,271.5C 59.2434,263.716 54.2434,255.382 50,246.5C 47.0958,236.062 45.9292,225.396 46.5,214.5C 44.0603,186.22 54.3936,164.053 77.5,148C 81.5377,146.23 85.371,144.064 89,141.5C 106.833,134.845 124.666,134.845 142.5,141.5C 146.185,144.995 150.518,147.495 155.5,149C 161,154.5 166.5,160 172,165.5C 172.813,167.436 173.313,169.436 173.5,171.5C 174.5,171.5 175.5,171.5 176.5,171.5C 179.364,179.266 181.531,187.266 183,195.5C 183.5,240.499 183.667,285.499 183.5,330.5C 176.5,330.5 169.5,330.5 162.5,330.5C 162.667,286.832 162.5,243.165 162,199.5C 161.158,195.131 160.158,190.797 159,186.5C 156.287,180.248 152.454,174.748 147.5,170C 141.861,166.177 135.861,162.844 129.5,160C 121.555,158.512 113.555,158.178 105.5,159C 99.5027,160.201 93.836,162.201 88.5,165C 87.2899,166.039 86.2899,167.206 85.5,168.5 Z"/></g>
<g><path style="opacity:0.043" fill="#34383f" d="M 199.5,197.5 C 199.5,210.167 199.5,222.833 199.5,235.5C 199.167,235.5 198.833,235.5 198.5,235.5C 198.5,233.167 198.5,230.833 198.5,228.5C 199.973,206.635 196.473,185.635 188,165.5C 178.544,147.713 164.377,135.213 145.5,128C 137.915,125.68 130.248,123.68 122.5,122C 82.3003,121.537 54.1337,139.703 38,176.5C 25.7336,213.127 30.7336,247.127 53,278.5C 78.7531,305.586 109.42,313.253 145,301.5C 146.011,302.337 147.178,302.67 148.5,302.5C 149.625,310.392 149.625,318.225 148.5,326C 122.515,335.157 96.8488,334.157 71.5,323C 65.2739,319.266 58.9405,315.766 52.5,312.5C 49.1456,309.812 46.1456,306.812 43.5,303.5C 44.1667,303.5 44.8333,303.5 45.5,303.5C 74.6286,329.106 107.962,336.106 145.5,324.5C 146.497,317.532 146.83,310.532 146.5,303.5C 108.212,315.753 75.7118,307.087 49,277.5C 30.9419,251.275 24.9419,222.275 31,190.5C 34.1841,179.451 38.5174,168.785 44,158.5C 47.0379,155.631 49.8712,152.631 52.5,149.5C 55.1667,147.5 57.5,145.167 59.5,142.5C 60.9599,140.537 62.6266,138.704 64.5,137C 106.111,111.399 144.611,115.566 180,149.5C 184.451,156.386 188.618,163.386 192.5,170.5C 195.966,179.144 198.299,188.144 199.5,197.5 Z"/></g>
<g><path style="opacity:0.22" fill="#898a8c" d="M 85.5,168.5 C 83.5,171.167 81.1667,173.5 78.5,175.5C 79.8333,172.167 82.1667,169.833 85.5,168.5 Z"/></g>
<g><path style="opacity:0.022" fill="#282c34" d="M 215.5,170.5 C 215.833,170.5 216.167,170.5 216.5,170.5C 218.51,175.229 220.01,180.229 221,185.5C 221.393,234.18 221.726,282.847 222,331.5C 220.426,332.848 218.593,333.514 216.5,333.5C 211.833,332.167 207.167,332.167 202.5,333.5C 200.407,333.514 198.574,332.848 197,331.5C 197.119,297.021 197.619,262.687 198.5,228.5C 198.5,230.833 198.5,233.167 198.5,235.5C 198.5,267.5 198.5,299.5 198.5,331.5C 203.363,331.819 208.03,331.486 212.5,330.5C 215.167,330.5 217.833,330.5 220.5,330.5C 220.832,282.664 220.499,234.997 219.5,187.5C 218.895,181.629 217.561,175.962 215.5,170.5 Z"/></g>
<g><path style="opacity:0.57" fill="#8b8d8f" d="M 219.5,187.5 C 220.499,234.997 220.832,282.664 220.5,330.5C 217.833,330.5 215.167,330.5 212.5,330.5C 208.167,330.5 203.833,330.5 199.5,330.5C 199.5,298.833 199.5,267.167 199.5,235.5C 199.5,222.833 199.5,210.167 199.5,197.5C 200.499,241.33 200.832,285.33 200.5,329.5C 206.833,329.5 213.167,329.5 219.5,329.5C 219.5,282.167 219.5,234.833 219.5,187.5 Z"/></g>
<g><path style="opacity:0.044" fill="#33373f" d="M 390.5,167.5 C 372.464,156.448 354.797,156.948 337.5,169C 330.303,176.531 322.803,183.698 315,190.5C 314.333,191.833 313.667,193.167 313,194.5C 302.95,204.549 293.617,215.216 285,226.5C 273.667,239.167 262.333,251.833 251,264.5C 248.268,268.241 245.934,272.241 244,276.5C 240.318,280.349 236.485,284.016 232.5,287.5C 231.804,285.008 232.137,282.508 233.5,280C 233.006,278.538 232.673,277.038 232.5,275.5C 233.001,265.446 233.834,255.446 235,245.5C 242.875,234.783 251.708,224.783 261.5,215.5C 263.833,212.167 266.167,208.833 268.5,205.5C 271.818,202.683 274.985,199.683 278,196.5C 291.4,180.096 305.9,164.596 321.5,150C 357.219,126.635 389.719,130.469 419,161.5C 423.468,165.96 427.135,170.96 430,176.5C 436.067,198.245 437.067,220.245 433,242.5C 424.649,271.185 405.816,288.352 376.5,294C 372.242,293.625 367.908,294.125 363.5,295.5C 357.113,294.564 350.779,293.397 344.5,292C 338.985,289.077 333.318,286.41 327.5,284C 323.301,279.466 318.801,275.299 314,271.5C 312.392,267.957 310.058,264.957 307,262.5C 302.802,254.769 299.136,246.769 296,238.5C 295.333,236.167 295.333,233.833 296,231.5C 299.716,227.452 303.05,223.118 306,218.5C 314.674,208.108 318.674,209.441 318,222.5C 321.934,234.368 327.434,245.368 334.5,255.5C 351.78,271.738 370.78,273.905 391.5,262C 405.668,249.806 411.668,234.306 409.5,215.5C 411.92,195.695 405.587,179.695 390.5,167.5 Z"/></g>
<g><path style="opacity:0.993" fill="#f8f8f8" d="M 390.5,167.5 C 389.04,165.537 387.373,163.704 385.5,162C 371.825,157.369 358.158,157.369 344.5,162C 342.079,164.094 339.412,165.76 336.5,167C 328.637,175.198 320.47,183.031 312,190.5C 305.475,200.034 297.808,208.701 289,216.5C 285.73,220.569 282.73,224.903 280,229.5C 264.233,244.481 250.4,260.814 238.5,278.5C 237.883,278.389 237.383,278.056 237,277.5C 236.5,267.839 236.334,258.172 236.5,248.5C 237.434,247.432 237.768,246.099 237.5,244.5C 238.5,244.5 239.5,244.5 240.5,244.5C 241.044,242.42 241.878,240.42 243,238.5C 259.094,220.417 275.094,202.417 291,184.5C 301.057,173.44 311.557,162.607 322.5,152C 326.167,150.167 329.833,148.333 333.5,146.5C 334.386,145.675 334.719,144.675 334.5,143.5C 352.475,135.233 370.808,134.4 389.5,141C 406.377,150.044 419.377,162.877 428.5,179.5C 435.305,203.575 435.138,227.575 428,251.5C 417.938,273.6 401.104,287.1 377.5,292C 347.235,296.28 324.401,285.446 309,259.5C 302.603,251.647 298.936,242.647 298,232.5C 303.413,226.114 308.913,219.78 314.5,213.5C 317.431,232.876 325.764,249.376 339.5,263C 358.009,274.479 376.342,274.145 394.5,262C 403.911,254.279 409.411,244.445 411,232.5C 411.667,220.833 411.667,209.167 411,197.5C 410.088,194.018 409.255,190.518 408.5,187C 406.513,183.457 404.68,179.957 403,176.5C 400.353,173.461 397.52,170.627 394.5,168C 393.207,167.51 391.873,167.343 390.5,167.5 Z"/></g>
<g><path style="opacity:0.04" fill="#343840" d="M 318.5,136.5 C 318.511,134.983 319.177,133.816 320.5,133C 328.045,129.729 335.712,126.729 343.5,124C 363.057,119.43 382.057,121.096 400.5,129C 406.587,133.426 412.92,137.426 419.5,141C 429.488,150.597 437.321,161.43 443,173.5C 444.181,178.56 445.515,183.56 447,188.5C 449.521,209.633 448.854,230.633 445,251.5C 442.347,258.812 438.68,265.479 434,271.5C 432.48,276.355 429.48,280.022 425,282.5C 424.517,283.448 424.351,284.448 424.5,285.5C 423.448,285.351 422.448,285.517 421.5,286C 418.418,290.752 414.418,294.419 409.5,297C 405.021,298.157 400.855,299.99 397,302.5C 379.688,308.62 361.854,310.12 343.5,307C 336.582,303.851 329.582,300.851 322.5,298C 318.025,295.35 314.025,292.183 310.5,288.5C 307.833,285.167 304.833,282.167 301.5,279.5C 298.61,278.101 297.11,275.768 297,272.5C 295.488,271.743 294.154,270.743 293,269.5C 290.486,262.449 287.82,255.449 285,248.5C 281.344,252.4 277.844,256.4 274.5,260.5C 273.138,262.851 271.805,265.184 270.5,267.5C 272.178,274.329 275.345,280.329 280,285.5C 280.333,286.833 280.667,288.167 281,289.5C 289.952,299.126 299.452,307.959 309.5,316C 311.167,316.333 312.833,316.667 314.5,317C 338.708,330.504 364.375,333.838 391.5,327C 398.286,324.85 404.953,322.517 411.5,320C 414.167,316.166 417.834,314.166 422.5,314C 428.276,309.094 434.109,304.261 440,299.5C 440.333,298.5 440.667,297.5 441,296.5C 442.955,295.547 444.622,294.213 446,292.5C 448.626,288.209 451.626,284.209 455,280.5C 455.333,278.833 455.667,277.167 456,275.5C 463.065,264.987 467.398,253.32 469,240.5C 471.32,219.076 470.654,197.742 467,176.5C 462.102,164.373 456.436,152.707 450,141.5C 447.963,139.294 445.797,137.294 443.5,135.5C 441.833,131.833 439.167,129.167 435.5,127.5C 434.375,125.871 433.041,124.371 431.5,123C 387.54,91.7056 343.54,91.7056 299.5,123C 281.305,140.862 263.471,159.028 246,177.5C 242.276,181.359 239.276,185.693 237,190.5C 236.333,200.5 236.333,210.5 237,220.5C 245.451,210.284 254.118,200.284 263,190.5C 265.227,185.11 268.727,180.776 273.5,177.5C 275.167,176.167 276.833,174.833 278.5,173.5C 266.114,187.719 254.281,202.386 243,217.5C 241.281,219.557 239.281,221.224 237,222.5C 235.118,221.907 234.118,220.573 234,218.5C 233.302,208.801 233.635,199.134 235,189.5C 236,187.833 237,186.167 238,184.5C 256.738,162.758 276.571,141.925 297.5,122C 340.775,90.6471 384.775,89.6471 429.5,119C 455.363,139.554 469.529,166.388 472,199.5C 475.18,226.09 471.18,251.423 460,275.5C 453.137,284.057 446.637,292.89 440.5,302C 428.652,311.878 415.652,319.878 401.5,326C 365.955,337.253 332.622,332.753 301.5,312.5C 294.778,305.067 287.611,298.067 280,291.5C 274.512,284.058 270.346,275.891 267.5,267C 269.994,262.482 272.827,258.316 276,254.5C 279.037,251.792 282.037,249.125 285,246.5C 285.772,246.645 286.439,246.978 287,247.5C 295.856,276.027 314.69,295.194 343.5,305C 369.121,310.264 392.788,305.597 414.5,291C 419.333,284.833 424.833,279.333 431,274.5C 445.016,250.932 450.516,225.432 447.5,198C 444.116,177.433 435.116,159.767 420.5,145C 388.563,118.256 354.563,115.423 318.5,136.5 Z"/></g>
<g><path style="opacity:0.196" fill="#848586" d="M 435.5,127.5 C 439.167,129.167 441.833,131.833 443.5,135.5C 440.5,133.167 437.833,130.5 435.5,127.5 Z"/></g>
<g><path style="opacity:0.993" fill="#f8f8f8" d="M 435.5,127.5 C 437.833,130.5 440.5,133.167 443.5,135.5C 445.797,137.294 447.963,139.294 450,141.5C 456.436,152.707 462.102,164.373 467,176.5C 470.654,197.742 471.32,219.076 469,240.5C 467.398,253.32 463.065,264.987 456,275.5C 455.667,277.167 455.333,278.833 455,280.5C 451.626,284.209 448.626,288.209 446,292.5C 444.622,294.213 442.955,295.547 441,296.5C 440.667,297.5 440.333,298.5 440,299.5C 434.109,304.261 428.276,309.094 422.5,314C 417.834,314.166 414.167,316.166 411.5,320C 404.953,322.517 398.286,324.85 391.5,327C 364.375,333.838 338.708,330.504 314.5,317C 312.833,316.667 311.167,316.333 309.5,316C 299.452,307.959 289.952,299.126 281,289.5C 280.667,288.167 280.333,286.833 280,285.5C 275.345,280.329 272.178,274.329 270.5,267.5C 271.805,265.184 273.138,262.851 274.5,260.5C 277.844,256.4 281.344,252.4 285,248.5C 287.82,255.449 290.486,262.449 293,269.5C 294.154,270.743 295.488,271.743 297,272.5C 297.11,275.768 298.61,278.101 301.5,279.5C 303.5,283.5 306.5,286.5 310.5,288.5C 314.025,292.183 318.025,295.35 322.5,298C 329.582,300.851 336.582,303.851 343.5,307C 361.854,310.12 379.688,308.62 397,302.5C 400.855,299.99 405.021,298.157 409.5,297C 414.418,294.419 418.418,290.752 421.5,286C 422.448,285.517 423.448,285.351 424.5,285.5C 424.351,284.448 424.517,283.448 425,282.5C 429.48,280.022 432.48,276.355 434,271.5C 438.68,265.479 442.347,258.812 445,251.5C 448.854,230.633 449.521,209.633 447,188.5C 445.515,183.56 444.181,178.56 443,173.5C 437.321,161.43 429.488,150.597 419.5,141C 412.92,137.426 406.587,133.426 400.5,129C 382.057,121.096 363.057,119.43 343.5,124C 335.712,126.729 328.045,129.729 320.5,133C 319.177,133.816 318.511,134.983 318.5,136.5C 313.938,139.043 309.605,142.043 305.5,145.5C 303.251,146.08 301.585,147.413 300.5,149.5C 293.5,157.167 286.167,164.5 278.5,171.5C 276.086,172.911 274.419,174.911 273.5,177.5C 268.727,180.776 265.227,185.11 263,190.5C 254.118,200.284 245.451,210.284 237,220.5C 236.333,210.5 236.333,200.5 237,190.5C 239.276,185.693 242.276,181.359 246,177.5C 263.471,159.028 281.305,140.862 299.5,123C 343.54,91.7056 387.54,91.7056 431.5,123C 433.041,124.371 434.375,125.871 435.5,127.5 Z"/></g>
<g><path style="opacity:0.102" fill="#77787a" d="M 278.5,171.5 C 278.5,172.167 278.5,172.833 278.5,173.5C 276.833,174.833 275.167,176.167 273.5,177.5C 274.419,174.911 276.086,172.911 278.5,171.5 Z"/></g>
<g><path style="opacity:0.034" fill="#2d3139" d="M 318.5,136.5 C 305.193,148.805 291.859,161.139 278.5,173.5C 278.5,172.833 278.5,172.167 278.5,171.5C 286.167,164.5 293.5,157.167 300.5,149.5C 302.749,148.92 304.415,147.587 305.5,145.5C 309.605,142.043 313.938,139.043 318.5,136.5 Z"/></g>
<g><path style="opacity:0.445" fill="#8a8b8d" d="M 305.5,145.5 C 304.415,147.587 302.749,148.92 300.5,149.5C 301.585,147.413 303.251,146.08 305.5,145.5 Z"/></g>
<g><path style="opacity:0.487" fill="#6a6b6c" d="M 236.5,248.5 C 236.334,258.172 236.5,267.839 237,277.5C 237.383,278.056 237.883,278.389 238.5,278.5C 237.928,279.973 237.095,281.307 236,282.5C 235.174,270.992 235.341,259.659 236.5,248.5 Z"/></g>
<g><path style="opacity:0.004" fill="#36393d" d="M -0.5,284.5 C 0.76491,289.447 1.43158,294.614 1.5,300C 0.26862,308.671 0.26862,317.337 1.5,326C 1.63971,329.15 0.973047,331.983 -0.5,334.5C -0.5,317.833 -0.5,301.167 -0.5,284.5 Z"/></g>
<g><path style="opacity:0.216" fill="#747577" d="M 301.5,279.5 C 304.833,282.167 307.833,285.167 310.5,288.5C 306.5,286.5 303.5,283.5 301.5,279.5 Z"/></g>
<g><path style="opacity:0.122" fill="#5d5e61" d="M 35.5,293.5 C 39.1667,296.5 42.5,299.833 45.5,303.5C 44.8333,303.5 44.1667,303.5 43.5,303.5C 39.93,301.719 37.2633,299.052 35.5,295.5C 35.5,294.833 35.5,294.167 35.5,293.5 Z"/></g>
<g><path style="opacity:0.148" fill="#55575b" d="M 198.5,235.5 C 198.833,235.5 199.167,235.5 199.5,235.5C 199.5,267.167 199.5,298.833 199.5,330.5C 203.833,330.5 208.167,330.5 212.5,330.5C 208.03,331.486 203.363,331.819 198.5,331.5C 198.5,299.5 198.5,267.5 198.5,235.5 Z"/></g>
</svg>
