<?xml version="1.0" encoding="UTF-8"?>
<!DOCTYPE svg PUBLIC "-//W3C//DTD SVG 1.1//EN" "http://www.w3.org/Graphics/SVG/1.1/DTD/svg11.dtd">
<svg xmlns="http://www.w3.org/2000/svg" version="1.1" width="479px" height="347px" style="shape-rendering:geometricPrecision; text-rendering:geometricPrecision; image-rendering:optimizeQuality; fill-rule:evenodd; clip-rule:evenodd" xmlns:xlink="http://www.w3.org/1999/xlink">
<g><path style="opacity:0.015" fill="#f3f3f4" d="M 278.5,118.5 C 278.832,80.9963 278.498,43.6629 277.5,6.5C 271.167,6.5 264.833,6.5 258.5,6.5C 257.501,49.9968 257.168,93.6635 257.5,137.5C 256.168,93.431 256.168,49.2643 257.5,5C 264.55,4.20323 271.55,4.3699 278.5,5.5C 279.83,43.3312 279.83,80.9978 278.5,118.5 Z"/></g>
<g><path style="opacity:0.02" fill="#e5e6e7" d="M 294.5,4.5 C 302.087,4.18583 309.587,4.51916 317,5.5C 317.372,34.0808 317.539,62.5808 317.5,91C 317.042,93.831 315.708,96.1643 313.5,98C 307.713,101.459 302.213,105.292 297,109.5C 296.127,109.265 295.293,108.931 294.5,108.5C 293.174,73.7667 293.174,39.1001 294.5,4.5 Z"/></g>
<g><path style="opacity:0.978" fill="#272c33" d="M 295.5,6.5 C 302.167,6.5 308.833,6.5 315.5,6.5C 315.828,35.8502 315.328,65.1836 314,94.5C 307.823,98.5884 301.823,102.922 296,107.5C 295.5,73.835 295.333,40.1683 295.5,6.5 Z"/></g>
<g><path style="opacity:0.981" fill="#272c33" d="M 219.5,188.5 C 219.832,235.67 219.499,282.67 218.5,329.5C 212.5,329.5 206.5,329.5 200.5,329.5C 200.5,305.167 200.5,280.833 200.5,256.5C 200.667,236.497 200.5,216.497 200,196.5C 197.822,175.306 188.989,157.14 173.5,142C 145.217,119.295 114.217,114.295 80.5,127C 50.7946,141.711 33.9612,165.544 30,198.5C 26.7952,223.219 30.7952,246.552 42,268.5C 45.2072,270.705 47.2072,273.705 48,277.5C 53.1667,281.333 57.6667,285.833 61.5,291C 65.4985,292.337 68.8318,294.67 71.5,298C 76.7435,300.79 82.0769,303.29 87.5,305.5C 89.3289,304.712 90.9956,305.212 92.5,307C 97.255,307.444 101.922,308.277 106.5,309.5C 111.664,308.203 116.83,308.203 122,309.5C 129.939,307.167 138.106,305.5 146.5,304.5C 146.5,310.833 146.5,317.167 146.5,323.5C 142.905,323.976 139.572,325.142 136.5,327C 128.779,327.923 121.112,329.09 113.5,330.5C 103.515,329.063 93.8479,327.23 84.5,325C 73.9744,321.222 63.9744,316.555 54.5,311C 46.3674,302.867 38.2007,294.701 30,286.5C 26.1811,279.532 22.3477,272.532 18.5,265.5C 15.8288,257.332 13.3288,249.332 11,241.5C 10.3333,223.5 10.3333,205.5 11,187.5C 12.1419,185.321 12.9752,182.988 13.5,180.5C 12.5291,179.038 12.8624,177.705 14.5,176.5C 14.2907,175.914 13.9574,175.414 13.5,175C 18.3549,166.122 22.8549,156.955 27,147.5C 66.3249,98.4344 114.158,87.9344 170.5,116C 176.689,120.861 182.855,125.695 189,130.5C 189.333,131.5 189.667,132.5 190,133.5C 195.11,138.102 199.61,143.102 203.5,148.5C 210.658,161.161 215.991,174.495 219.5,188.5 Z"/></g>
<g><path style="opacity:0.027" fill="#d7d8da" d="M 258.5,6.5 C 258.333,50.1679 258.5,93.8346 259,137.5C 264.634,130.864 270.634,124.531 277,118.5C 277.5,81.1682 277.667,43.8348 277.5,6.5C 278.498,43.6629 278.832,80.9963 278.5,118.5C 272.504,125.995 266.004,132.995 259,139.5C 257.97,139.164 257.47,138.497 257.5,137.5C 257.168,93.6635 257.501,49.9968 258.5,6.5 Z"/></g>
<g><path style="opacity:0.984" fill="#272c33" d="M 258.5,6.5 C 264.833,6.5 271.167,6.5 277.5,6.5C 277.667,43.8348 277.5,81.1682 277,118.5C 270.634,124.531 264.634,130.864 259,137.5C 258.5,93.8346 258.333,50.1679 258.5,6.5 Z"/></g>
<g><path style="opacity:0.039" fill="#e2e3e4" d="M 362.5,134.5 C 365.846,135.036 369.18,135.703 372.5,136.5C 373.689,136.244 374.856,135.911 376,135.5C 391.267,139.8 404.6,147.467 416,158.5C 420.333,164.167 424.667,169.833 429,175.5C 436.759,199.288 437.426,223.288 431,247.5C 415.704,282.11 389.204,297.277 351.5,293C 343.291,290.231 335.291,286.897 327.5,283C 322,277.5 316.5,272 311,266.5C 304.984,257.484 300.317,247.818 297,237.5C 296.333,235.5 296.333,233.5 297,231.5C 302.061,226.373 306.394,220.707 310,214.5C 311.389,212.773 313.056,211.439 315,210.5C 316.261,210.759 317.261,211.426 318,212.5C 318.499,215.022 318.332,217.522 317.5,220C 320.585,233.024 325.919,245.024 333.5,256C 351.027,272.683 370.361,275.017 391.5,263C 406.239,250.669 412.572,234.835 410.5,215.5C 413.571,187.438 401.905,168.938 375.5,160C 364.381,158.318 353.714,159.651 343.5,164C 340.87,166.545 337.87,168.545 334.5,170C 328.333,177.5 321.5,184.333 314,190.5C 308.157,199.155 301.157,206.822 293,213.5C 283.454,226.719 272.788,239.052 261,250.5C 256.05,257.784 250.717,264.784 245,271.5C 244.03,277.982 240.53,281.316 234.5,281.5C 233.582,271.855 233.248,262.355 233.5,253C 234.333,250.5 235.167,248 236,245.5C 240.38,240.789 244.38,235.789 248,230.5C 255.786,223.72 262.453,216.053 268,207.5C 279.409,196.095 290.076,184.095 300,171.5C 307.189,165.31 314.022,158.81 320.5,152C 326.941,147.63 333.608,143.63 340.5,140C 347.781,137.472 355.114,135.639 362.5,134.5 Z"/></g>
<g><path style="opacity:0.979" fill="#272c33" d="M 361.5,136.5 C 390.954,138.188 412.287,151.855 425.5,177.5C 426.723,179.46 428.056,181.293 429.5,183C 429.043,183.414 428.709,183.914 428.5,184.5C 435.003,204.817 435.003,225.151 428.5,245.5C 421.81,267.523 407.477,281.856 385.5,288.5C 381.437,289.632 377.437,290.965 373.5,292.5C 370.228,291.437 367.061,291.771 364,293.5C 357.216,291.951 350.383,290.451 343.5,289C 339.547,286.19 335.213,284.19 330.5,283C 325.613,278.069 320.613,273.236 315.5,268.5C 306.494,257.564 300.994,245.564 299,232.5C 304.354,226.647 309.52,220.647 314.5,214.5C 315.961,229.117 321.127,242.45 330,254.5C 347.789,274.603 368.289,278.103 391.5,265C 403.042,257.072 409.875,246.239 412,232.5C 412.667,220.833 412.667,209.167 412,197.5C 409.924,185.11 404.09,174.944 394.5,167C 389.637,163.49 384.304,160.823 378.5,159C 363.35,155.24 349.35,157.573 336.5,166C 328.303,174.531 319.803,182.698 311,190.5C 304.475,200.034 296.808,208.701 288,216.5C 278.852,229.33 268.519,241.33 257,252.5C 250.895,261.061 244.562,269.395 238,277.5C 236.42,268.576 236.087,259.576 237,250.5C 240.988,244.508 244.988,238.508 249,232.5C 263.667,215.833 278.333,199.167 293,182.5C 302.833,172.667 312.667,162.833 322.5,153C 334.398,144.713 347.398,139.213 361.5,136.5 Z"/></g>
<g><path style="opacity:0.068" fill="#f2f3f3" d="M 235.5,195.5 C 235.5,203.167 235.5,210.833 235.5,218.5C 234.778,218.082 234.278,217.416 234,216.5C 233.183,209.267 233.683,202.267 235.5,195.5 Z"/></g>
<g><path style="opacity:0.341" fill="#e4e4e5" d="M 107.5,134.5 C 113.81,134.057 119.977,134.724 126,136.5C 126.772,136.355 127.439,136.022 128,135.5C 132.908,136.727 137.741,138.227 142.5,140C 153.486,146.312 163.319,154.145 172,163.5C 180.039,174.275 184.539,186.442 185.5,200C 184.984,220.897 184.65,241.897 184.5,263C 184.324,284.382 184.991,305.715 186.5,327C 186.01,328.982 185.01,330.649 183.5,332C 176.167,332.667 168.833,332.667 161.5,332C 160.833,330.667 160.167,329.333 159.5,328C 160.274,325.595 160.774,323.095 161,320.5C 161.667,280.833 161.667,241.167 161,201.5C 157.313,175.072 142.146,161.072 115.5,159.5C 105.425,159.186 96.0917,161.686 87.5,167C 82.5349,173.115 77.7016,179.282 73,185.5C 70.8088,194.719 69.3088,204.052 68.5,213.5C 69.5663,221.936 70.3996,230.269 71,238.5C 77.7036,257.028 90.8702,267.694 110.5,270.5C 114.781,270.08 119.115,269.913 123.5,270C 128.833,268.333 134.167,266.667 139.5,265C 142.713,260.23 145.713,260.397 148.5,265.5C 148.061,268.657 148.061,271.99 148.5,275.5C 149.283,280.434 147.95,284.601 144.5,288C 134.896,291.359 125.063,293.859 115,295.5C 100.968,293.54 87.8013,289.206 75.5,282.5C 70.2358,277.28 65.0691,271.946 60,266.5C 52.6191,257.067 47.9525,246.4 46,234.5C 45.3333,221.167 45.3333,207.833 46,194.5C 46.5106,188.967 47.844,183.633 50,178.5C 54.3333,171.833 58.6667,165.167 63,158.5C 75.6937,146.238 90.5271,138.238 107.5,134.5 Z"/></g>
<g><path style="opacity:0.224" fill="#dfe0e1" d="M 219.5,188.5 C 219.833,188.5 220.167,188.5 220.5,188.5C 221.665,235.665 221.832,282.998 221,330.5C 214.256,331.479 207.422,331.812 200.5,331.5C 200.5,331.167 200.5,330.833 200.5,330.5C 206.69,330.823 212.69,330.49 218.5,329.5C 219.499,282.67 219.832,235.67 219.5,188.5 Z"/></g>
<g><path style="opacity:0.409" fill="#abacae" d="M 200.5,256.5 C 200.5,280.833 200.5,305.167 200.5,329.5C 206.5,329.5 212.5,329.5 218.5,329.5C 212.69,330.49 206.69,330.823 200.5,330.5C 199.167,305.833 199.167,281.167 200.5,256.5 Z"/></g>
<g><path style="opacity:0.012" fill="#e5e6e7" d="M 220.5,188.5 C 220.167,188.5 219.833,188.5 219.5,188.5C 215.991,174.495 210.658,161.161 203.5,148.5C 199.61,143.102 195.11,138.102 190,133.5C 189.667,132.5 189.333,131.5 189,130.5C 182.855,125.695 176.689,120.861 170.5,116C 114.158,87.9344 66.3249,98.4344 27,147.5C 22.8549,156.955 18.3549,166.122 13.5,175C 13.9574,175.414 14.2907,175.914 14.5,176.5C 12.8624,177.705 12.5291,179.038 13.5,180.5C 12.9752,182.988 12.1419,185.321 11,187.5C 10.3333,205.5 10.3333,223.5 11,241.5C 13.3288,249.332 15.8288,257.332 18.5,265.5C 22.3477,272.532 26.1811,279.532 30,286.5C 38.2007,294.701 46.3674,302.867 54.5,311C 63.9744,316.555 73.9744,321.222 84.5,325C 93.8479,327.23 103.515,329.063 113.5,330.5C 121.112,329.09 128.779,327.923 136.5,327C 139.572,325.142 142.905,323.976 146.5,323.5C 146.5,317.167 146.5,310.833 146.5,304.5C 138.106,305.5 129.939,307.167 122,309.5C 116.83,308.203 111.664,308.203 106.5,309.5C 101.922,308.277 97.255,307.444 92.5,307C 90.9956,305.212 89.3289,304.712 87.5,305.5C 82.0769,303.29 76.7435,300.79 71.5,298C 68.8318,294.67 65.4985,292.337 61.5,291C 57.6667,285.833 53.1667,281.333 48,277.5C 47.2072,273.705 45.2072,270.705 42,268.5C 30.7952,246.552 26.7952,223.219 30,198.5C 33.9612,165.544 50.7946,141.711 80.5,127C 114.217,114.295 145.217,119.295 173.5,142C 188.989,157.14 197.822,175.306 200,196.5C 200.5,216.497 200.667,236.497 200.5,256.5C 199.167,281.167 199.167,305.833 200.5,330.5C 200.5,330.833 200.5,331.167 200.5,331.5C 198.265,330.714 197.265,329.048 197.5,326.5C 198.151,304.349 198.484,282.183 198.5,260C 198.63,236.47 198.13,212.97 197,189.5C 196.206,186.529 195.539,183.529 195,180.5C 192.457,174.176 189.79,167.843 187,161.5C 182.5,155.667 178,149.833 173.5,144C 142.838,119.018 109.505,115.018 73.5,132C 64.0135,139.487 55.1802,147.654 47,156.5C 32.3223,180.836 27.6556,207.17 33,235.5C 34.9316,246.294 38.2649,256.628 43,266.5C 48.9104,274.471 55.4104,281.971 62.5,289C 66.6412,290.135 69.9746,292.469 72.5,296C 83.5296,301.406 94.863,305.24 106.5,307.5C 111.33,306.208 116.163,306.208 121,307.5C 129.747,305.216 138.581,303.716 147.5,303C 148.167,309.667 148.833,316.333 149.5,323C 148.939,324.676 147.939,326.009 146.5,327C 135.852,328.973 125.186,330.807 114.5,332.5C 92.3535,330.745 72.0202,323.912 53.5,312C 31.9415,295.757 17.4415,274.59 10,248.5C 8.3926,227.876 8.05927,207.21 9,186.5C 17.979,148.847 40.1456,122.014 75.5,106C 116.348,91.6407 153.348,98.3074 186.5,126C 199.122,138.279 208.955,152.445 216,168.5C 218.023,175.065 219.523,181.732 220.5,188.5 Z"/></g>
<g><path style="opacity:0.978" fill="#272c33" d="M 107.5,136.5 C 133.169,136.25 154.336,145.917 171,165.5C 172.118,167.765 172.951,170.099 173.5,172.5C 176.276,172.089 176.943,172.922 175.5,175C 179.4,182.932 182.067,191.265 183.5,200C 182.182,241.663 182.182,283.33 183.5,325C 183.456,326.764 183.122,328.431 182.5,330C 176.167,330.667 169.833,330.667 163.5,330C 163.624,286.925 163.457,243.759 163,200.5C 159.944,177.445 147.111,163.279 124.5,158C 94.2263,154.477 75.2263,167.31 67.5,196.5C 67.6799,197.554 68.0133,198.554 68.5,199.5C 65.9012,209.144 65.9012,218.811 68.5,228.5C 68.0721,240.538 72.4054,251.038 81.5,260C 95.2967,271.469 110.963,275.135 128.5,271C 134.148,269.509 139.481,267.342 144.5,264.5C 146.465,270.343 146.965,276.343 146,282.5C 145.535,283.931 144.701,285.097 143.5,286C 134.66,289.756 125.16,292.256 115,293.5C 81.0033,290.171 59.0033,272.171 49,239.5C 47.0357,222.507 47.0357,205.507 49,188.5C 57.3647,162.283 74.198,145.95 99.5,139.5C 102.092,138.083 104.759,137.083 107.5,136.5 Z"/></g>
<g><path style="opacity:0.137" fill="#e3e4e5" d="M 235.5,218.5 C 235.5,210.833 235.5,203.167 235.5,195.5C 235.248,192.68 235.748,190.014 237,187.5C 239.95,182.882 243.284,178.548 247,174.5C 263.861,157.307 280.694,140.14 297.5,123C 340.463,90.8198 384.13,89.4865 428.5,119C 449.246,135.091 462.746,155.924 469,181.5C 474.847,210.674 472.847,239.341 463,267.5C 456.391,280.436 448.224,292.27 438.5,303C 399.369,334.681 357.036,339.681 311.5,318C 294.186,307.02 280.686,292.52 271,274.5C 269.632,271.262 269.299,267.928 270,264.5C 274.546,259.623 278.713,254.456 282.5,249C 284.167,248.333 285.833,248.333 287.5,249C 291.238,265.099 299.572,278.432 312.5,289C 332.983,305.881 356.317,311.547 382.5,306C 394.115,302.359 405.115,297.359 415.5,291C 421.357,284.145 427.524,277.645 434,271.5C 437.14,264.414 440.474,257.414 444,250.5C 445.811,243.635 446.978,236.635 447.5,229.5C 446.185,219.666 446.185,209.832 447.5,200C 441.489,156.985 417.156,130.985 374.5,122C 354.301,120.716 335.635,125.383 318.5,136C 313.9,141.292 308.567,145.625 302.5,149C 293.694,159.14 284.194,168.64 274,177.5C 262.5,191.667 251,205.833 239.5,220C 237.648,220.773 236.314,220.273 235.5,218.5 Z"/></g>
<g><path style="opacity:0.981" fill="#272c33" d="M 362.5,99.5 C 376.94,100.446 390.94,103.279 404.5,108C 412.46,111.971 420.126,116.304 427.5,121C 433.978,127.81 440.811,134.31 448,140.5C 455.485,152.461 461.485,164.795 466,177.5C 470.542,202.179 470.542,226.845 466,251.5C 464.65,256.387 462.817,261.054 460.5,265.5C 460.709,266.086 461.043,266.586 461.5,267C 457.14,272.203 453.64,278.036 451,284.5C 447.502,288.744 443.836,292.744 440,296.5C 439.667,297.5 439.333,298.5 439,299.5C 433.112,303.869 427.278,308.369 421.5,313C 416.139,315.048 411.306,317.882 407,321.5C 406.586,321.043 406.086,320.709 405.5,320.5C 397.149,324.042 388.649,327.042 380,329.5C 378.769,328.892 377.436,328.559 376,328.5C 353.436,331.21 332.269,326.877 312.5,315.5C 311.914,315.709 311.414,316.043 311,316.5C 301.141,308.65 291.808,299.983 283,290.5C 279.968,285.48 276.968,280.48 274,275.5C 272.475,272.28 271.808,268.947 272,265.5C 276.01,260.659 280.177,255.992 284.5,251.5C 291.78,272.617 305.113,288.784 324.5,300C 355.615,314.582 386.281,312.249 416.5,293C 436.451,276.768 447.451,255.768 449.5,230C 448.167,220.333 448.167,210.667 449.5,201C 448.011,177.036 438.344,157.036 420.5,141C 413.526,137.177 406.859,132.844 400.5,128C 373.12,116.646 346.12,118.313 319.5,133C 314.427,138.069 308.76,142.402 302.5,146C 293.667,156.167 284.167,165.667 274,174.5C 266.026,185.468 257.36,195.802 248,205.5C 245.216,210.025 241.716,214.025 237.5,217.5C 236.392,208.492 236.559,199.492 238,190.5C 239.586,188.33 240.92,185.996 242,183.5C 260.357,163.139 279.523,143.305 299.5,124C 312.753,114.706 326.753,107.706 341.5,103C 348.68,102.067 355.68,100.9 362.5,99.5 Z"/></g>
</svg>
