<?xml version="1.0" standalone="no"?><!DOCTYPE svg PUBLIC "-//W3C//DTD SVG 1.1//EN" "http://www.w3.org/Graphics/SVG/1.1/DTD/svg11.dtd"><svg t="1683163877435" class="icon" viewBox="0 0 1024 1024" version="1.1" xmlns="http://www.w3.org/2000/svg" p-id="2689" xmlns:xlink="http://www.w3.org/1999/xlink" width="200" height="200"><path d="M477.866667 337.493333h68.266666v285.866667h-68.266666z" fill="#E6A23C" opacity=".99" p-id="2690"></path><path d="M512 230.4m-119.466667 0a119.466667 119.466667 0 1 0 238.933334 0 119.466667 119.466667 0 1 0-238.933334 0Z" fill="#E6A23C" opacity=".99" p-id="2691"></path><path d="M221.866667 793.6m-119.466667 0a119.466667 119.466667 0 1 0 238.933333 0 119.466667 119.466667 0 1 0-238.933333 0Z" fill="#E6A23C" opacity=".99" p-id="2692"></path><path d="M802.133333 793.6m-119.466666 0a119.466667 119.466667 0 1 0 238.933333 0 119.466667 119.466667 0 1 0-238.933333 0Z" fill="#E6A23C" opacity=".99" p-id="2693"></path><path d="M512 793.6m-119.466667 0a119.466667 119.466667 0 1 0 238.933334 0 119.466667 119.466667 0 1 0-238.933334 0Z" fill="#E6A23C" opacity=".99" p-id="2694"></path><path d="M256 520.533333h512v102.4h68.266667v-119.466666c0-28.16-23.04-51.2-51.2-51.2H238.933333c-28.16 0-51.2 23.04-51.2 51.2v119.466666h68.266667v-102.4z" fill="#E6A23C" opacity=".99" p-id="2695"></path></svg>